<svg id="call" xmlns="http://www.w3.org/2000/svg" viewBox="0 0 36 37">
  <path fill="#FF6A3D" d="M28.846 36.007c-1.569 0-3.773-.568-7.073-2.412-4.013-2.25-7.117-4.328-11.108-8.309-3.848-3.846-5.721-6.335-8.342-11.105C-.638 8.796-.133 5.973.43 4.767c.672-1.442 1.664-2.304 2.946-3.16A14.17 14.17 0 0 1 5.679.385L5.9.288c.398-.18 1.001-.45 1.765-.161.51.191.964.583 1.676 1.286 1.46 1.44 3.456 4.648 4.192 6.223.495 1.062.822 1.763.823 2.549 0 .92-.463 1.63-1.025 2.396-.105.144-.21.281-.311.415-.612.803-.746 1.036-.658 1.45.18.834 1.516 3.315 3.713 5.507 2.197 2.192 4.606 3.444 5.443 3.622.432.093.67-.047 1.499-.68.119-.091.24-.185.369-.28.856-.637 1.533-1.088 2.432-1.088h.005c.782 0 1.451.34 2.56.899 1.447.73 4.751 2.7 6.2 4.162.705.71 1.098 1.163 1.29 1.672.29.766.017 1.367-.16 1.768-.03.067-.063.14-.098.222-.338.801-.75 1.57-1.229 2.297-.854 1.278-1.72 2.267-3.165 2.94a5.419 5.419 0 0 1-2.375.52Z"/>
</svg>
