<svg id="chat" xmlns="http://www.w3.org/2000/svg"  viewBox="0 0 36 36">
  <path fill="#FF6A3D" d="M33.428 22.534c.062-.089.122-.181.183-.268A14.027 14.027 0 0 0 36 14.452C36.026 6.472 29.293 0 20.968 0 13.708 0 7.65 4.941 6.231 11.5c-.213.973-.32 1.965-.321 2.96 0 7.988 6.473 14.634 14.798 14.634 1.323 0 3.107-.398 4.085-.666a27.167 27.167 0 0 0 2.197-.719c.25-.095.643-.193.956-.103l6.22 1.798a.321.321 0 0 0 .403-.39l-1.424-5.424c-.1-.401-.112-.477.283-1.056Z"/>
  <path fill="#FF6A3D" d="M22.543 30.807c-.618.099-1.243.154-1.869.165-3.41 0-6.63-.9-9.24-2.588a14.793 14.793 0 0 1-4.267-3.963C5.071 21.643 3.93 18.112 3.93 14.417c0-.251.009-.493.017-.736a.349.349 0 0 0-.605-.25 12.757 12.757 0 0 0-1.195 15.688c.199.303.311.537.277.693L1.29 35.62a.321.321 0 0 0 .42.364l5.463-1.948a1.355 1.355 0 0 1 1.039.018c1.635.642 3.444 1.038 5.252 1.038a13.617 13.617 0 0 0 9.372-3.697.345.345 0 0 0-.294-.587Z"/>
</svg>
