<svg id="instagram" xmlns="http://www.w3.org/2000/svg" viewBox="0 0 36 36">
  <path fill="#FF6A3D" d="M25.5 3a7.523 7.523 0 0 1 7.5 7.5v15a7.524 7.524 0 0 1-7.5 7.5h-15A7.523 7.523 0 0 1 3 25.5v-15A7.523 7.523 0 0 1 10.5 3h15Zm0-3h-15C4.725 0 0 4.725 0 10.5v15C0 31.275 4.725 36 10.5 36h15C31.275 36 36 31.275 36 25.5v-15C36 4.725 31.275 0 25.5 0Z"/>
  <path fill="#FF6A3D" d="M27.75 10.5a2.25 2.25 0 1 1 0-4.5 2.25 2.25 0 0 1 0 4.5ZM18 12a6 6 0 1 1-6 6 6.007 6.007 0 0 1 6-6Zm0-3a9 9 0 1 0 0 18 9 9 0 0 0 0-18Z"/>
</svg>
