<svg id="label"  xmlns="http://www.w3.org/2000/svg" viewBox="0 0 30 36">
  <path fill="#FF6A3D" d="M24.747 0H9a4.507 4.507 0 0 0-4.36 3.375h16.03a5.202 5.202 0 0 1 5.202 5.202v21.436l1.547 1.237a1.125 1.125 0 0 0 1.36.035 1.153 1.153 0 0 0 .468-.943V4.5a4.5 4.5 0 0 0-4.5-4.5Z"/>
  <path fill="#FF6A3D" d="M19.123 5.625H4.5A4.5 4.5 0 0 0 0 10.124v24.72a1.15 1.15 0 0 0 .464.941 1.125 1.125 0 0 0 1.386-.05l9.961-8.392 9.962 8.389a1.125 1.125 0 0 0 1.378.056 1.153 1.153 0 0 0 .472-.945V10.124a4.5 4.5 0 0 0-4.5-4.5Z"/>
</svg>
