<?xml version="1.0" standalone="no"?>
<!DOCTYPE svg PUBLIC "-//W3C//DTD SVG 20010904//EN"
 "http://www.w3.org/TR/2001/REC-SVG-20010904/DTD/svg10.dtd">
<svg version="1.0" xmlns="http://www.w3.org/2000/svg"
 width="326.000000pt" height="326.000000pt" viewBox="0 0 326.000000 326.000000"
 preserveAspectRatio="xMidYMid meet">
<metadata>
Created by potrace 1.14, written by Peter Selinger 2001-2017
</metadata>
<g transform="translate(0.000000,326.000000) scale(0.100000,-0.100000)"
fill="#000000" stroke="none">
<path d="M250 3252 c0 -5 132 -240 293 -523 161 -283 360 -632 441 -777 109
-192 153 -261 164 -257 20 7 396 242 423 263 l21 18 -211 369 -211 370 312 3
c242 2 315 -1 324 -10 11 -13 482 -841 885 -1555 112 -199 207 -363 211 -363
10 0 80 140 117 232 34 88 75 244 92 353 19 120 16 428 -6 550 -60 344 -211
635 -454 875 -124 123 -254 214 -416 294 -189 94 -344 138 -550 156 -124 12
-1435 13 -1435 2z"/>
<path d="M130 1165 l0 -1165 663 1 c785 0 959 7 1107 42 186 45 349 114 511
218 130 84 157 4 -217 658 -179 314 -329 569 -332 567 -59 -33 -430 -262 -440
-270 -9 -9 27 -81 173 -339 102 -181 185 -330 185 -333 0 -2 -139 -4 -308 -4
l-309 0 -508 895 c-279 492 -511 895 -516 895 -5 0 -9 -507 -9 -1165z"/>
</g>
</svg>
